HIERARCHY
ROOT newVegas:Hips
{
	OFFSET 0.000000 96.479958 0.000000
	CHANNELS 6 Xposition Yposition Zposition Xrotation Yrotation Zrotation
	JOINT newVegas:Pelvis
	{
		OFFSET 0.000000 0.000000 0.000000
		CHANNELS 3 Xrotation Yrotation Zrotation
		JOINT newVegas:LeftUpLeg
		{
			OFFSET 18.735201 -5.666702 -4.541200
			CHANNELS 3 Xrotation Yrotation Zrotation
			JOINT newVegas:LeftLeg
			{
				OFFSET -0.021200 -31.938179 0.493100
				CHANNELS 3 Xrotation Yrotation Zrotation
				JOINT newVegas:LeftFoot
				{
					OFFSET 0.021200 -31.938179 -4.336299
					CHANNELS 3 Xrotation Yrotation Zrotation
					JOINT newVegas:LeftToeBase
					{
						OFFSET 0.943001 -26.722000 15.023500
						CHANNELS 3 Xrotation Yrotation Zrotation
						End Site
						{
							OFFSET 0.000000 30.670183 0.000000
						}
					}
				}
				JOINT newVegas:Left_PantLeg
				{
					OFFSET 0.663870 -9.044666 -1.108900
					CHANNELS 3 Xrotation Yrotation Zrotation
					End Site
					{
						OFFSET 1.415995 20.635357 0.000000
					}
				}
			}
		}
		JOINT newVegas:RightUpLeg
		{
			OFFSET -18.735201 -5.666702 -4.541200
			CHANNELS 3 Xrotation Yrotation Zrotation
			JOINT newVegas:RightLeg
			{
				OFFSET 0.018946 -31.938133 0.493100
				CHANNELS 3 Xrotation Yrotation Zrotation
				JOINT newVegas:RightFoot
				{
					OFFSET -0.018946 -31.938126 -4.336299
					CHANNELS 3 Xrotation Yrotation Zrotation
					JOINT newVegas:RightToeBase
					{
						OFFSET -0.943001 -26.722004 15.023500
						CHANNELS 3 Xrotation Yrotation Zrotation
						End Site
						{
							OFFSET 0.000000 30.670187 0.000000
						}
					}
				}
				JOINT newVegas:Right_PantLeg
				{
					OFFSET -0.661674 -9.044716 -1.108900
					CHANNELS 3 Xrotation Yrotation Zrotation
					End Site
					{
						OFFSET -1.415958 20.635269 0.000000
					}
				}
			}
		}
	}
	JOINT newVegas:Spine
	{
		OFFSET 0.000000 10.199997 -0.299500
		CHANNELS 3 Xrotation Yrotation Zrotation
		JOINT newVegas:Spine1
		{
			OFFSET 0.000000 11.900002 -1.516600
			CHANNELS 3 Xrotation Yrotation Zrotation
			JOINT newVegas:Spine2
			{
				OFFSET 0.000000 13.600006 -2.842500
				CHANNELS 3 Xrotation Yrotation Zrotation
				JOINT newVegas:Neck
				{
					OFFSET 0.000000 9.624100 -2.890100
					CHANNELS 3 Xrotation Yrotation Zrotation
					JOINT newVegas:Head
					{
						OFFSET 0.000000 14.068802 -1.351900
						CHANNELS 3 Xrotation Yrotation Zrotation
						JOINT newVegas:Hair_Back
						{
							OFFSET 0.000000 3.231903 -17.524799
							CHANNELS 3 Xrotation Yrotation Zrotation
							End Site
							{
								OFFSET 0.000000 19.849884 0.000000
							}
						}
						JOINT newVegas:Hair_Front
						{
							OFFSET 0.000000 31.260406 4.573800
							CHANNELS 3 Xrotation Yrotation Zrotation
							JOINT newVegas:Hair_Front1
							{
								OFFSET 0.000000 2.284103 11.993300
								CHANNELS 3 Xrotation Yrotation Zrotation
								JOINT newVegas:Hair_Front2
								{
									OFFSET 0.000000 2.284103 11.993300
									CHANNELS 3 Xrotation Yrotation Zrotation
									End Site
									{
										OFFSET 0.000000 12.208862 0.000000
									}
								}
							}
						}
						JOINT newVegas:Jowel
						{
							OFFSET 0.000000 -7.458206 6.864100
							CHANNELS 3 Xrotation Yrotation Zrotation
							End Site
							{
								OFFSET 0.000000 19.849884 0.000000
							}
						}
					}
				}
				JOINT newVegas:LeftShoulder
				{
					OFFSET 15.263000 10.923401 -0.547700
					CHANNELS 3 Xrotation Yrotation Zrotation
					JOINT newVegas:LeftArm
					{
						OFFSET 25.438599 -2.830597 -13.032500
						CHANNELS 3 Xrotation Yrotation Zrotation
						JOINT newVegas:LeftForeArm
						{
							OFFSET 29.960503 0.000000 0.000000
							CHANNELS 3 Xrotation Yrotation Zrotation
							JOINT newVegas:LeftHand
							{
								OFFSET 27.849251 0.000000 0.000000
								CHANNELS 3 Xrotation Yrotation Zrotation
								JOINT newVegas:LeftHandThumb1
								{
									OFFSET 4.487587 -3.305161 6.305391
									CHANNELS 3 Xrotation Yrotation Zrotation
									JOINT newVegas:LeftHandThumb2
									{
										OFFSET 5.480453 -3.164139 3.164143
										CHANNELS 3 Xrotation Yrotation Zrotation
										JOINT newVegas:LeftHandThumb3
										{
											OFFSET 5.159721 -2.978973 2.978967
											CHANNELS 3 Xrotation Yrotation Zrotation
											End Site
											{
												OFFSET 2.494507 5.926697 1.738678
											}
										}
									}
								}
								JOINT newVegas:LeftHandIndex1
								{
									OFFSET 18.578728 -0.527832 5.208049
									CHANNELS 3 Xrotation Yrotation Zrotation
									JOINT newVegas:LeftHandIndex2
									{
										OFFSET 3.192009 0.000000 0.000000
										CHANNELS 3 Xrotation Yrotation Zrotation
										JOINT newVegas:LeftHandIndex3
										{
											OFFSET 3.835129 0.000000 0.000000
											CHANNELS 3 Xrotation Yrotation Zrotation
											End Site
											{
												OFFSET -0.034599 3.816971 0.371180
											}
										}
									}
								}
								JOINT newVegas:LeftHandMiddle1
								{
									OFFSET 18.476105 0.000000 0.000000
									CHANNELS 3 Xrotation Yrotation Zrotation
									JOINT newVegas:LeftHandMiddle2
									{
										OFFSET 3.324875 0.000000 0.000000
										CHANNELS 3 Xrotation Yrotation Zrotation
										JOINT newVegas:LeftHandMiddle3
										{
											OFFSET 4.596550 0.000000 0.000000
											CHANNELS 3 Xrotation Yrotation Zrotation
											End Site
											{
												OFFSET 0.057701 4.578827 0.399218
											}
										}
									}
								}
								JOINT newVegas:LeftHandRing1
								{
									OFFSET 17.732719 0.121887 -4.201567
									CHANNELS 3 Xrotation Yrotation Zrotation
									JOINT newVegas:LeftHandRing2
									{
										OFFSET 2.733170 0.000000 0.000000
										CHANNELS 3 Xrotation Yrotation Zrotation
										JOINT newVegas:LeftHandRing3
										{
											OFFSET 3.178268 0.000000 0.000000
											CHANNELS 3 Xrotation Yrotation Zrotation
											End Site
											{
												OFFSET 0.119102 3.170624 0.185394
											}
										}
									}
								}
								JOINT newVegas:LeftHandPinky1
								{
									OFFSET 15.989624 -0.606689 -7.535461
									CHANNELS 3 Xrotation Yrotation Zrotation
									JOINT newVegas:LeftHandPinky2
									{
										OFFSET 2.538986 0.000000 0.000000
										CHANNELS 3 Xrotation Yrotation Zrotation
										JOINT newVegas:LeftHandPinky3
										{
											OFFSET 2.593102 0.000000 0.000000
											CHANNELS 3 Xrotation Yrotation Zrotation
											End Site
											{
												OFFSET -0.150902 2.584198 0.152708
											}
										}
									}
								}
							}
							JOINT newVegas:Left_Sleeve
							{
								OFFSET 0.267448 -0.649796 0.577675
								CHANNELS 3 Xrotation Yrotation Zrotation
								End Site
								{
									OFFSET 0.000000 15.991241 0.000000
								}
							}
							JOINT newVegas:Left_CapeC
							{
								OFFSET 15.715958 -8.608795 -6.935905
								CHANNELS 3 Xrotation Yrotation Zrotation
								JOINT newVegas:Left_CapeC1
								{
									OFFSET 0.000000 -8.688499 0.000000
									CHANNELS 3 Xrotation Yrotation Zrotation
									End Site
									{
										OFFSET 0.000000 8.688499 0.000000
									}
								}
							}
						}
						JOINT newVegas:Left_CapeB
						{
							OFFSET 26.118385 -8.608795 -7.079235
							CHANNELS 3 Xrotation Yrotation Zrotation
							JOINT newVegas:Left_CapeB1
							{
								OFFSET 0.000000 -8.688499 0.000000
								CHANNELS 3 Xrotation Yrotation Zrotation
								End Site
								{
									OFFSET 0.000000 8.688499 0.000000
								}
							}
						}
						JOINT newVegas:Left_CapeA
						{
							OFFSET 5.115639 -8.608795 -10.395809
							CHANNELS 3 Xrotation Yrotation Zrotation
							JOINT newVegas:Left_CapeA1
							{
								OFFSET 0.000000 -8.688499 0.000000
								CHANNELS 3 Xrotation Yrotation Zrotation
								End Site
								{
									OFFSET 0.000000 8.688499 0.000000
								}
							}
						}
					}
				}
				JOINT newVegas:RightShoulder
				{
					OFFSET -15.263000 10.923401 -0.547700
					CHANNELS 3 Xrotation Yrotation Zrotation
					JOINT newVegas:RightArm
					{
						OFFSET -25.438599 -2.830597 -13.032500
						CHANNELS 3 Xrotation Yrotation Zrotation
						JOINT newVegas:RightForeArm
						{
							OFFSET -29.960503 0.000000 0.000000
							CHANNELS 3 Xrotation Yrotation Zrotation
							JOINT newVegas:RightHand
							{
								OFFSET -27.849251 0.000000 0.000000
								CHANNELS 3 Xrotation Yrotation Zrotation
								JOINT newVegas:RightHandThumb1
								{
									OFFSET -4.487587 -3.305161 6.305391
									CHANNELS 3 Xrotation Yrotation Zrotation
									JOINT newVegas:RightHandThumb2
									{
										OFFSET -5.480453 -3.164139 3.164143
										CHANNELS 3 Xrotation Yrotation Zrotation
										JOINT newVegas:RightHandThumb3
										{
											OFFSET -5.159721 -2.978973 2.978967
											CHANNELS 3 Xrotation Yrotation Zrotation
											End Site
											{
												OFFSET -2.494507 5.926697 1.738678
											}
										}
									}
								}
								JOINT newVegas:RightHandIndex1
								{
									OFFSET -18.578728 -0.527832 5.208049
									CHANNELS 3 Xrotation Yrotation Zrotation
									JOINT newVegas:RightHandIndex2
									{
										OFFSET -3.192009 0.000000 0.000000
										CHANNELS 3 Xrotation Yrotation Zrotation
										JOINT newVegas:RightHandIndex3
										{
											OFFSET -3.835129 0.000000 0.000000
											CHANNELS 3 Xrotation Yrotation Zrotation
											End Site
											{
												OFFSET 0.034599 3.816971 0.371180
											}
										}
									}
								}
								JOINT newVegas:RightHandMiddle1
								{
									OFFSET -18.476105 0.000000 0.000000
									CHANNELS 3 Xrotation Yrotation Zrotation
									JOINT newVegas:RightHandMiddle2
									{
										OFFSET -3.324875 0.000000 0.000000
										CHANNELS 3 Xrotation Yrotation Zrotation
										JOINT newVegas:RightHandMiddle3
										{
											OFFSET -4.596550 0.000000 0.000000
											CHANNELS 3 Xrotation Yrotation Zrotation
											End Site
											{
												OFFSET -0.057701 4.578827 0.399218
											}
										}
									}
								}
								JOINT newVegas:RightHandRing1
								{
									OFFSET -17.732719 0.121887 -4.201567
									CHANNELS 3 Xrotation Yrotation Zrotation
									JOINT newVegas:RightHandRing2
									{
										OFFSET -2.733170 0.000000 0.000000
										CHANNELS 3 Xrotation Yrotation Zrotation
										JOINT newVegas:RightHandRing3
										{
											OFFSET -3.178268 0.000000 0.000000
											CHANNELS 3 Xrotation Yrotation Zrotation
											End Site
											{
												OFFSET -0.119102 3.170624 0.185394
											}
										}
									}
								}
								JOINT newVegas:RightHandPinky1
								{
									OFFSET -15.989624 -0.606689 -7.535461
									CHANNELS 3 Xrotation Yrotation Zrotation
									JOINT newVegas:RightHandPinky2
									{
										OFFSET -2.538986 0.000000 0.000000
										CHANNELS 3 Xrotation Yrotation Zrotation
										JOINT newVegas:RightHandPinky3
										{
											OFFSET -2.593102 0.000000 0.000000
											CHANNELS 3 Xrotation Yrotation Zrotation
											End Site
											{
												OFFSET 0.150902 2.584198 0.152708
											}
										}
									}
								}
							}
							JOINT newVegas:Right_CapeC
							{
								OFFSET -15.715958 -8.608795 -6.935905
								CHANNELS 3 Xrotation Yrotation Zrotation
								JOINT newVegas:Right_CapeC1
								{
									OFFSET 0.000000 -8.688499 0.000000
									CHANNELS 3 Xrotation Yrotation Zrotation
									End Site
									{
										OFFSET 0.000000 8.688499 0.000000
									}
								}
							}
							JOINT newVegas:Right_Sleeve
							{
								OFFSET -0.267448 -0.649994 0.577675
								CHANNELS 3 Xrotation Yrotation Zrotation
								End Site
								{
									OFFSET 0.000000 15.991302 0.000000
								}
							}
						}
						JOINT newVegas:Right_CapeA
						{
							OFFSET -5.115540 -8.608795 -10.395824
							CHANNELS 3 Xrotation Yrotation Zrotation
							JOINT newVegas:Right_CapeA1
							{
								OFFSET 0.000000 -8.688499 0.000000
								CHANNELS 3 Xrotation Yrotation Zrotation
								End Site
								{
									OFFSET 0.000000 8.688499 0.000000
								}
							}
						}
						JOINT newVegas:Right_CapeB
						{
							OFFSET -26.118187 -8.608795 -7.079266
							CHANNELS 3 Xrotation Yrotation Zrotation
							JOINT newVegas:Right_CapeB1
							{
								OFFSET 0.000000 -8.688499 0.000000
								CHANNELS 3 Xrotation Yrotation Zrotation
								End Site
								{
									OFFSET 0.000000 8.688499 0.000000
								}
							}
						}
					}
				}
				JOINT newVegas:Left_Collar
				{
					OFFSET 18.625099 8.655502 8.828100
					CHANNELS 3 Xrotation Yrotation Zrotation
					JOINT newVegas:Left_Collar1
					{
						OFFSET 14.783401 10.540405 -1.259500
						CHANNELS 3 Xrotation Yrotation Zrotation
						End Site
						{
							OFFSET 0.000000 18.199875 0.000000
						}
					}
				}
				JOINT newVegas:Collar_Back
				{
					OFFSET 0.000000 15.630707 -20.132601
					CHANNELS 3 Xrotation Yrotation Zrotation
					End Site
					{
						OFFSET 0.000000 22.523010 0.000000
					}
				}
				JOINT newVegas:Left_Peck
				{
					OFFSET 17.239599 -5.132599 25.482599
					CHANNELS 3 Xrotation Yrotation Zrotation
					End Site
					{
						OFFSET 0.000000 22.523010 0.000000
					}
				}
				JOINT newVegas:Right_Peck
				{
					OFFSET -17.239599 -5.132202 25.482599
					CHANNELS 3 Xrotation Yrotation Zrotation
					End Site
					{
						OFFSET 0.000000 22.523010 0.000000
					}
				}
				JOINT newVegas:Right_Collar
				{
					OFFSET -18.625099 8.655792 8.828100
					CHANNELS 3 Xrotation Yrotation Zrotation
					JOINT newVegas:Right_Collar1
					{
						OFFSET -14.783401 10.539993 -1.259500
						CHANNELS 3 Xrotation Yrotation Zrotation
						End Site
						{
							OFFSET 0.000000 18.199631 0.000000
						}
					}
				}
			}
		}
		JOINT newVegas:Belly
		{
			OFFSET 0.000000 -6.540398 9.014299
			CHANNELS 3 Xrotation Yrotation Zrotation
			End Site
			{
				OFFSET 0.000000 11.566666 0.000000
			}
		}
	}
	JOINT newVegas:ElvisFacialAnim_Joint
	{
		OFFSET 1.000000 -95.330101 -8.825800
		CHANNELS 3 Xrotation Yrotation Zrotation
		End Site
		{
			OFFSET 0.000000 35.315800 0.000000
		}
	}
}
MOTION
Frames: 4
Frame Time: 0.033333
23.475578 92.582817 119.824974 -4.007253 48.109800 2.752966 -0.000000 -0.000004 -0.000000 -35.564990 -3.037264 -0.263364 32.179132 -0.829432 0.980269 5.443841 -0.477967 -27.342077 0.000000 -0.000002 0.000001 0.000000 -0.000001 0.000000 1.160700 -39.593114 -8.333925 24.362545 10.795777 1.873824 -22.649344 -12.321500 1.759866 0.000000 0.000000 0.000000 0.000001 0.000001 -0.000001 -10.573661 13.976047 -2.201259 -2.733718 3.814574 0.475836 -2.702635 3.783168 0.464957 -1.063438 -0.310943 -1.507482 -1.063436 -0.310950 -1.507469 -0.000002 0.000000 0.000002 -1.063496 -0.310965 -1.507482 -1.063348 -0.310898 -1.507486 -0.000001 0.000002 -0.000001 -0.000002 0.000000 0.000000 1.217464 1.597213 -20.614947 -8.574764 12.695579 -41.910932 0.000002 -10.540688 0.000009 36.420000 4.760740 -29.080941 2.803457 -0.001826 4.328915 11.350944 -7.029792 12.143118 0.000003 0.000000 -0.000004 1.747615 -8.505197 -0.580081 0.225613 1.611731 -15.936580 -0.000002 -0.000002 -0.000000 -1.201343 -0.209218 -19.703571 0.097169 1.063681 -10.438688 -0.000004 -0.000001 -0.000001 0.877038 5.635083 -19.755687 0.224376 1.607361 -15.892308 0.000002 -0.000001 0.000000 0.043321 3.756627 -23.463945 0.222773 1.601735 -15.835116 0.000003 -0.000008 -0.000002 -0.000000 -0.000001 -0.000001 -0.000000 -0.000001 -0.000001 -0.000000 -0.000001 -0.000001 0.000000 -0.000002 -0.000000 0.000000 -0.000003 0.000000 0.000000 -0.000002 -0.000000 0.000000 -0.000002 0.000000 10.260096 -12.725256 22.639864 2.978029 18.583884 48.834374 0.000002 9.965369 -0.000005 -3.790388 19.662093 15.282982 -4.676972 19.776430 -14.313837 33.538066 -40.156168 20.537844 0.000002 0.000001 -0.000000 -0.623465 3.380218 20.736410 3.702265 -4.558426 78.155669 0.000004 -0.000000 0.000002 -2.778774 -1.014362 42.660993 2.941016 -4.330075 68.355509 0.000002 -0.000000 -0.000001 -1.369404 -3.748595 55.376899 2.167302 -3.936935 57.652513 -0.000004 -0.000001 -0.000000 -4.221015 -13.189957 54.554855 1.887755 -3.745707 53.481658 0.000001 -0.000002 -0.000001 0.000001 0.000000 0.000000 0.000001 0.000001 -0.000001 0.000001 0.000000 -0.000001 -0.000001 0.000001 -0.000000 -0.000002 0.000002 -0.000000 -0.000001 0.000001 -0.000000 -0.000002 0.000002 -0.000000 -0.000001 0.000002 0.000000 -0.000001 0.000002 0.000000 -0.000001 0.000002 0.000000 -0.000001 0.000002 0.000000 -0.000001 0.000002 0.000000 -0.000001 0.000002 0.000000 -0.000001 0.000002 0.000000 -0.000000 0.000001 0.000000 -0.000000 -0.000004 -0.000000 
24.542168 92.081482 121.667107 -3.733363 46.725771 2.230713 0.000000 -0.000001 -0.000000 -37.843339 -2.535689 -0.932656 31.422951 -1.775531 0.696972 7.665597 -1.122892 -25.739682 0.000001 0.000001 0.000001 0.000001 -0.000002 -0.000000 2.913933 -37.522283 -7.475059 24.534552 10.820268 2.179552 -23.651953 -12.881979 1.894885 0.000000 0.000001 0.000000 0.000001 -0.000001 0.000000 -11.176981 14.678351 -2.225285 -2.862193 4.022797 0.711592 -2.837033 3.990182 0.705840 -1.120420 -0.299908 -1.502442 -1.120400 -0.299958 -1.502455 -0.000000 -0.000003 -0.000001 -1.120444 -0.299880 -1.502448 -1.120274 -0.299949 -1.502439 -0.000000 -0.000002 0.000002 -0.000000 -0.000003 -0.000001 1.671579 3.142001 -20.949129 -6.790970 15.708339 -39.522903 -0.000006 -9.195072 0.000005 37.213654 4.436165 -30.482622 2.719324 -0.287152 4.232499 11.293839 -7.023467 12.170180 0.000002 -0.000001 -0.000001 0.732774 -8.187037 -1.827698 0.232365 1.635159 -16.174598 -0.000003 -0.000003 -0.000002 -1.170684 0.251022 -21.290466 0.107991 1.120814 -11.006125 0.000002 -0.000002 0.000002 1.003189 5.869817 -21.173486 0.247444 1.686211 -16.694517 -0.000000 0.000001 0.000002 -0.029686 3.785669 -25.575317 0.267555 1.751916 -17.365797 0.000001 -0.000007 -0.000000 -0.000001 0.000002 -0.000001 -0.000001 0.000002 -0.000001 -0.000001 0.000002 -0.000002 -0.000000 -0.000001 0.000002 -0.000001 -0.000002 0.000002 -0.000000 -0.000001 0.000002 -0.000000 -0.000001 0.000001 10.535225 -12.984665 23.278581 2.502490 19.954135 47.455632 0.000009 10.327615 -0.000006 -3.741977 19.937392 16.097103 -4.234354 20.371796 -14.148620 33.078910 -39.457907 20.374453 0.000000 -0.000002 -0.000003 -0.691119 3.873974 20.639899 3.460228 -4.501042 75.091557 -0.000002 0.000000 0.000000 -2.881348 -0.835214 42.249788 2.713959 -4.233210 65.314838 0.000001 -0.000000 -0.000000 -1.750003 -3.554483 56.083544 1.966224 -3.802459 54.673902 0.000001 0.000001 -0.000000 -4.467013 -14.238439 56.111264 1.700692 -3.599980 50.562255 0.000002 -0.000002 0.000001 -0.000001 0.000000 0.000004 -0.000001 0.000000 0.000004 -0.000001 0.000000 0.000005 -0.000001 0.000002 -0.000004 -0.000002 0.000002 -0.000004 -0.000001 0.000002 -0.000004 -0.000002 0.000002 -0.000004 -0.000000 0.000000 -0.000000 -0.000000 0.000000 -0.000000 -0.000000 0.000000 -0.000000 -0.000000 0.000000 -0.000000 -0.000000 0.000000 -0.000000 -0.000000 0.000000 -0.000000 -0.000000 0.000000 -0.000000 -0.000000 0.000001 0.000000 0.000000 -0.000001 -0.000000 
25.989494 91.601433 123.511757 -3.635837 44.598857 1.721193 0.000000 -0.000002 -0.000000 -38.596535 -1.886775 -0.958021 28.261170 -2.350881 0.196253 14.089342 -2.432675 -22.518898 0.000000 -0.000001 -0.000002 -0.000000 -0.000003 -0.000001 4.828662 -34.638895 -6.884717 24.244718 10.853544 2.546833 -24.219506 -13.506844 2.291615 0.000000 0.000000 -0.000000 0.000002 0.000001 -0.000000 -11.401407 15.272371 -2.208369 -3.058972 4.189184 0.874562 -3.036495 4.153199 0.868402 -1.192116 -0.275669 -1.482390 -1.192113 -0.275668 -1.482389 -0.000000 0.000001 -0.000001 -1.192124 -0.275645 -1.482390 -1.192030 -0.275692 -1.482388 -0.000000 0.000002 0.000001 -0.000000 0.000001 -0.000002 1.997400 4.349814 -20.927872 -4.503819 18.894880 -38.579811 0.000004 -8.037289 -0.000009 37.526278 4.801776 -29.609563 2.635191 -0.570000 4.136667 11.330384 -7.000262 12.054905 0.000002 -0.000001 -0.000003 -0.165005 -7.768509 -3.558036 0.269568 1.758300 -17.431100 -0.000004 -0.000001 -0.000002 -1.133566 0.745773 -23.248480 0.136753 1.259701 -12.390941 -0.000000 0.000000 0.000002 1.163259 6.092101 -23.568565 0.312081 1.888307 -18.767212 0.000000 -0.000000 -0.000002 -0.146276 3.840323 -28.687303 0.374969 2.064017 -20.590389 -0.000001 -0.000003 0.000001 0.000000 0.000001 0.000001 0.000000 0.000001 0.000001 -0.000000 0.000001 0.000001 -0.000000 -0.000002 0.000000 -0.000001 -0.000002 0.000000 -0.000000 -0.000002 0.000000 -0.000000 -0.000001 -0.000000 10.803924 -13.231229 23.950104 1.677663 21.541464 46.400098 0.000016 10.178555 -0.000007 -3.654741 19.817022 16.644481 -3.791600 20.972302 -13.993318 32.633121 -38.758482 20.224103 0.000002 -0.000001 -0.000000 -0.756829 4.367122 20.543355 3.222038 -4.430994 72.033641 0.000001 0.000000 0.000000 -2.979660 -0.658279 41.847459 2.492783 -4.124648 62.280595 0.000001 0.000000 -0.000000 -2.120612 -3.377134 56.762434 1.776377 -3.660797 51.757135 -0.000000 0.000002 0.000001 -4.650897 -15.242100 57.573830 1.528352 -3.451302 47.760224 -0.000001 -0.000002 0.000001 -0.000000 -0.000000 -0.000001 -0.000000 -0.000002 0.000000 -0.000000 -0.000000 -0.000000 -0.000002 0.000001 0.000000 -0.000002 0.000002 0.000001 -0.000002 0.000001 0.000000 -0.000002 0.000002 0.000001 -0.000000 0.000001 -0.000001 -0.000000 0.000001 -0.000001 -0.000000 0.000001 -0.000001 -0.000000 0.000001 -0.000001 -0.000000 0.000001 -0.000001 -0.000000 0.000001 -0.000001 -0.000000 0.000001 -0.000001 0.000001 -0.000000 -0.000000 0.000000 -0.000002 -0.000000 
27.355408 91.475693 125.200676 -3.550886 41.752974 1.155059 -0.000000 0.000001 -0.000000 -37.830632 -1.020041 -1.292556 24.521667 -0.079988 -0.458102 19.495605 -2.868275 -15.863558 -0.000001 -0.000002 0.000001 -0.000002 0.000001 0.000001 6.882267 -31.112867 -6.160014 22.540944 10.738657 2.747413 -23.467092 -14.125719 2.895380 -0.000000 -0.000000 -0.000000 0.000002 -0.000001 -0.000000 -11.302715 15.800200 -2.240288 -3.388987 4.318268 0.907793 -3.360602 4.287035 0.889702 -1.277024 -0.243487 -1.442565 -1.277014 -0.243472 -1.442548 0.000000 -0.000001 0.000001 -1.276958 -0.243453 -1.442563 -1.276999 -0.243472 -1.442573 -0.000000 0.000000 -0.000002 0.000000 -0.000001 0.000000 2.133789 5.126903 -20.263018 -1.764288 22.037621 -39.732911 0.000001 -7.049566 -0.000006 38.435906 6.064901 -28.749130 2.550672 -0.851391 4.041097 11.440409 -6.896295 11.754598 -0.000000 -0.000001 -0.000003 -0.858410 -7.233506 -5.886028 0.351104 1.999435 -19.917802 -0.000001 -0.000002 0.000001 -1.069729 1.365759 -26.000297 0.194064 1.496822 -14.772828 -0.000001 -0.000001 0.000000 1.364075 6.311823 -26.939885 0.456880 2.270005 -22.756631 0.000001 0.000001 -0.000003 -0.305769 3.931761 -32.554942 0.569618 2.521760 -25.453269 -0.000000 -0.000002 -0.000001 -0.000000 0.000001 -0.000003 -0.000000 0.000001 -0.000003 -0.000000 0.000001 -0.000003 -0.000000 0.000001 -0.000001 -0.000001 0.000001 -0.000003 -0.000000 0.000001 -0.000001 -0.000001 0.000001 -0.000001 11.198112 -13.794046 24.820704 0.701189 23.455098 45.677686 -0.000014 9.474149 0.000002 -3.474499 19.631798 17.530405 -3.356834 21.566520 -13.850627 32.208034 -38.070942 20.088747 0.000002 -0.000004 0.000001 -0.819413 4.850549 20.448535 2.992707 -4.350182 69.038548 -0.000002 0.000000 -0.000001 -3.072022 -0.486961 41.461550 2.282037 -4.007134 59.308930 -0.000003 0.000000 0.000000 -2.473082 -3.218691 57.400111 1.601090 -3.515837 48.957215 0.000001 -0.000001 -0.000000 -4.778178 -16.174127 58.912738 1.373397 -3.304218 45.130495 -0.000001 0.000003 -0.000000 0.000002 0.000000 0.000001 0.000002 0.000000 0.000003 0.000002 0.000000 -0.000000 -0.000000 0.000002 -0.000000 -0.000001 0.000002 -0.000002 -0.000000 0.000002 -0.000000 -0.000001 0.000002 -0.000002 -0.000002 -0.000001 -0.000000 -0.000002 -0.000001 -0.000000 -0.000002 -0.000001 -0.000000 -0.000002 -0.000001 -0.000000 -0.000002 -0.000001 -0.000000 -0.000002 -0.000001 -0.000000 -0.000002 -0.000001 -0.000000 0.000000 0.000000 0.000000 -0.000000 0.000001 -0.000000 
